<svg version="1.1" id="Layer_1" xmlns="http://www.w3.org/2000/svg" xmlns:xlink="http://www.w3.org/1999/xlink" x="0px" y="0px"
	 width="100%" viewBox="0 0 288 288" enable-background="new 0 0 288 288" xml:space="preserve">
<path fill="#000000" opacity="1.000000" stroke="none" 
	d="
M120.802528,171.318939 
	C117.657867,170.079117 114.839760,169.050003 112.117638,167.810181 
	C106.731445,165.356949 103.942520,160.927307 103.834541,155.173447 
	C103.609642,143.190079 103.509178,131.195908 103.763016,119.214752 
	C103.964539,109.703011 111.565315,104.782204 120.164566,108.313301 
	C127.240318,111.218819 134.315430,114.160767 141.206528,117.470291 
	C146.997910,120.251663 152.604004,120.669395 158.514435,118.108032 
	C166.448837,114.669571 174.397614,111.257149 182.417068,108.024155 
	C189.971924,104.978439 196.578552,108.657898 196.946579,116.887901 
	C197.533539,130.013489 197.467285,143.186813 197.128082,156.325775 
	C196.999588,161.302368 193.278671,164.967087 188.938660,166.897659 
	C177.703278,171.895569 166.211792,176.283844 155.367950,182.187805 
	C150.550247,184.810791 145.470673,183.186859 141.086731,180.602127 
	C134.736786,176.858261 128.026917,174.018585 120.802528,171.318939 
M170.360748,165.721985 
	C174.846466,163.953415 179.342941,162.211517 183.813751,160.406021 
	C186.399963,159.361603 188.759766,157.789917 188.778046,154.746475 
	C188.843887,143.779510 189.038513,132.793610 188.482254,121.850555 
	C188.180725,115.918564 186.124435,115.226387 180.467743,117.658371 
	C172.524445,121.073441 164.598145,124.528999 156.628281,127.880981 
	C151.635193,129.980972 146.671082,129.925385 141.644653,127.660095 
	C134.066040,124.244576 126.365494,121.100555 118.764740,117.732872 
	C113.486763,115.394341 112.144554,116.091125 112.107094,121.726295 
	C112.040718,131.711014 112.275856,141.702423 111.980736,151.679062 
	C111.821541,157.060577 114.044807,159.917419 119.013954,161.604279 
	C128.460587,164.811066 137.845352,168.213562 145.982468,174.299728 
	C148.802505,176.408981 151.820038,176.192215 154.760422,174.041748 
	C159.345612,170.688385 164.341690,168.046173 170.360748,165.721985 
z"/>
<path fill="#000000" opacity="1.000000" stroke="none" 
	d="
M132.993347,190.488449 
	C124.766052,185.479156 115.890511,182.537033 107.170151,179.393295 
	C94.999130,175.005569 90.098129,166.698975 90.776611,154.080246 
	C91.249992,145.276169 90.869453,136.427078 90.907776,127.598251 
	C90.923203,124.042290 91.379799,120.588554 94.034973,117.876015 
	C96.449158,115.409653 98.430389,115.652824 99.529671,119.030045 
	C99.981056,120.416771 100.074333,121.968628 100.075676,123.445610 
	C100.086609,135.439713 100.230812,147.439026 99.911728,159.425507 
	C99.781868,164.303665 101.694473,167.627686 105.821320,169.406738 
	C118.346863,174.806290 130.897354,180.178787 143.644058,185.019592 
	C148.876083,187.006546 154.657074,186.146057 159.735245,183.813461 
	C170.189789,179.011200 181.009262,175.142059 191.621140,170.749802 
	C199.563782,167.462326 200.721390,165.474091 200.898117,156.824051 
	C201.146301,144.676331 200.188751,132.508606 201.486099,120.379883 
	C201.696274,118.415077 201.561111,116.013504 204.115326,115.580078 
	C206.954285,115.098343 207.503479,117.622253 208.409485,119.557610 
	C209.365692,121.600235 209.318588,123.763176 209.320053,125.927925 
	C209.327026,136.256317 209.346161,146.584747 209.328369,156.913086 
	C209.307892,168.804977 205.414764,174.244568 194.113190,178.639435 
	C185.741440,181.894974 177.434814,185.318268 169.105209,188.681778 
	C167.503372,189.328613 166.027313,189.984894 166.853973,192.302887 
	C167.533371,194.207993 168.661499,195.053482 170.611435,194.620087 
	C173.939957,193.880325 176.696732,194.906769 176.777344,198.397476 
	C176.853790,201.707748 173.946793,203.157318 170.860123,203.237457 
	C164.700165,203.397369 158.534119,203.334991 152.370560,203.339874 
	C145.540512,203.345276 138.710449,203.323822 131.880386,203.312744 
	C130.211853,203.310043 128.548279,203.319199 127.030800,202.432037 
	C125.393478,201.474808 123.765068,200.348953 124.013107,198.252914 
	C124.288467,195.925995 126.127373,194.858673 128.286041,194.831741 
	C131.121140,194.796356 133.321075,194.319946 132.993347,190.488449 
M146.051804,193.430496 
	C145.156738,193.633133 143.896576,193.444672 144.374649,195.462418 
	C148.689163,195.732651 153.037582,195.958374 157.323334,194.422607 
	C153.822983,193.295609 150.197403,194.495621 146.051804,193.430496 
z"/>
<path fill="#000000" opacity="1.000000" stroke="none" 
	d="
M173.262314,97.221802 
	C175.114441,100.551620 173.736267,102.613953 171.370850,104.382172 
	C169.608932,105.699265 167.855225,105.368378 166.343674,104.073212 
	C164.041641,102.100723 164.553360,99.794601 165.585327,97.272118 
	C168.463638,90.236580 167.102890,86.754089 160.319962,83.074852 
	C149.814072,77.376183 146.224930,77.599350 137.828735,84.668388 
	C144.947266,91.486603 152.532684,94.117615 161.180267,87.696518 
	C164.703598,94.097595 163.810730,97.654594 158.390793,100.660851 
	C148.927734,105.909676 140.996796,103.356056 135.449097,93.426277 
	C133.977203,90.791733 130.824875,90.332138 128.462860,88.852486 
	C126.475731,87.607681 123.990715,86.610580 124.059570,83.931404 
	C124.123993,81.425346 126.667854,80.678680 128.534897,79.703018 
	C134.287170,76.697060 140.096191,73.799652 145.884460,70.862610 
	C148.200623,69.687363 150.608459,69.101105 153.079483,70.260605 
	C160.009109,73.512276 167.001663,76.649277 173.787643,80.180725 
	C178.121307,82.435959 178.161057,84.239334 174.563950,87.577423 
	C171.594254,90.333298 173.221512,93.718811 173.262314,97.221802 
z"/>
<path fill="#000000" opacity="1.000000" stroke="none" 
	d="
M123.463333,157.541794 
	C121.357513,156.833710 119.598595,156.305252 118.651031,154.489151 
	C117.930580,153.108353 117.402534,151.751205 118.424805,150.286789 
	C119.408028,148.878311 120.880981,148.357864 122.371864,148.858353 
	C129.627502,151.294113 136.602814,154.419205 143.404633,157.913513 
	C145.049500,158.758545 145.712494,160.384735 145.050430,162.173462 
	C144.267990,164.287430 142.355255,164.542404 140.478165,164.243851 
	C136.657089,163.636108 133.320236,161.636230 129.773880,160.239426 
	C127.765747,159.448456 125.805244,158.536530 123.463333,157.541794 
z"/>
<path fill="#000000" opacity="1.000000" stroke="none" 
	d="
M122.686050,145.408813 
	C121.310486,144.702118 120.197617,144.264618 119.304527,143.551788 
	C117.684929,142.259094 117.239136,140.492828 118.252083,138.663254 
	C119.284576,136.798325 121.080032,136.282715 122.979652,137.091171 
	C129.549805,139.887299 136.095917,142.743515 142.597305,145.695480 
	C144.542236,146.578583 145.924301,148.181717 145.072449,150.499634 
	C144.086365,153.182846 141.776901,153.111099 139.652405,152.294250 
	C134.077774,150.150909 128.577637,147.813812 122.686050,145.408813 
z"/>
<path fill="#000000" opacity="1.000000" stroke="none" 
	d="
M135.230743,138.947510 
	C130.429367,136.958511 125.966576,135.167984 121.531197,133.311951 
	C119.013870,132.258530 116.992287,130.475525 118.099701,127.601524 
	C119.309982,124.460503 122.213135,125.221603 124.530205,126.146408 
	C130.079178,128.361160 135.591873,130.692093 140.988739,133.251236 
	C143.437088,134.412231 146.784592,135.874786 144.908844,139.477737 
	C143.264343,142.636520 140.329376,141.085724 137.850769,140.141769 
	C137.076523,139.846909 136.336487,139.462143 135.230743,138.947510 
z"/>
<path fill="#000000" opacity="1.000000" stroke="none" 
	d="
M176.878906,137.615173 
	C179.452103,136.472672 181.672897,136.277802 182.734741,138.846466 
	C183.940369,141.762970 181.638657,143.123917 179.483002,144.067535 
	C173.259796,146.791672 166.968353,149.360168 160.699036,151.978638 
	C158.729034,152.801422 156.694107,153.206177 155.493927,150.915680 
	C154.194214,148.435196 155.675598,146.607193 157.729431,145.666138 
	C162.997040,143.252533 168.395859,141.125168 173.743530,138.886505 
	C174.661301,138.502304 175.585526,138.133560 176.878906,137.615173 
z"/>
<path fill="#000000" opacity="1.000000" stroke="none" 
	d="
M162.070938,131.956573 
	C167.327927,129.826477 172.213089,127.788589 177.161255,125.917351 
	C179.218613,125.139328 181.571945,124.632286 182.713837,127.299332 
	C183.848984,129.950623 181.918533,131.377411 179.899078,132.262283 
	C173.238297,135.180893 166.505997,137.936172 159.803558,140.759888 
	C157.940765,141.544678 156.600891,140.825592 155.562286,139.289856 
	C154.365860,137.520782 155.179504,135.955765 156.524246,134.941360 
	C158.081787,133.766403 159.976303,133.038162 162.070938,131.956573 
z"/>
<path fill="#000000" opacity="1.000000" stroke="none" 
	d="
M156.426102,158.375214 
	C163.381012,153.933960 170.979645,151.823669 178.166473,148.770111 
	C180.086380,147.954376 181.857452,148.330795 182.769211,150.400726 
	C183.725189,152.570969 182.376633,154.126862 180.693848,154.879593 
	C173.706482,158.005173 166.701004,161.125244 159.535919,163.802429 
	C156.363235,164.987915 155.105057,162.840683 156.426102,158.375214 
z"/>
</svg>